# xmcd CD database file
#
# Track frame offsets:
#	150
#	34627
#	64314
#	111033
#	150145
#	176662
#	205614
#	259651
#	293741
#
# Disc length: 4247 seconds
#
# Revision: 0
# Processed by: cddbd v1.5.1PL2 Copyright (c) Steve Scherf et al.
# Submitted via: CDex 1.51
#
DISCID=70109509
DTITLE=Jan Garbarek - Twelve Moons
DYEAR=1993
DGENRE=Jazz
TTITLE0=Twelve Moons
TTITLE1=Psalm
TTITLE2=Brother Wind March
TTITLE3=There Were Swallows...
TTITLE4=The Tall Tear Trees
TTITLE5=Arietta
TTITLE6=Gautes-Margjit
TTITLE7=Hahai
TTITLE8=Witchi-Tai-To
EXTD=YEAR: 1993
EXTT0=
EXTT1=
EXTT2=
EXTT3=
EXTT4=
EXTT5=
EXTT6=
EXTT7=
EXTT8=
PLAYORDER=
